<?xml version="1.0" encoding="iso-8859-1"?>
<!-- Generator: Adobe Illustrator 18.0.0, SVG Export Plug-In . SVG Version: 6.00 Build 0)  -->
<!DOCTYPE svg PUBLIC "-//W3C//DTD SVG 1.1//EN" "http://www.w3.org/Graphics/SVG/1.1/DTD/svg11.dtd">
<svg version="1.1" id="openai-horizontal" xmlns="http://www.w3.org/2000/svg" xmlns:xlink="http://www.w3.org/1999/xlink" x="0px"
	 y="0px" viewBox="0 0 1440 1440" style="enable-background:new 0 0 1440 1440;" xml:space="preserve">
<path d="M38.87,748.858c0-36.26-0.02-72.52,0.009-108.779c0.012-15.584,5.845-21.351,21.565-21.354
	c65.86-0.017,131.719-0.015,197.579-0.005c15.273,0.002,22.231,6.683,22.254,22.119c0.106,72.025,0.105,144.051,0.035,216.076
	c-0.014,14.892-7.982,23.076-22.872,23.1c-65.612,0.105-131.226,0.1-196.838-0.11c-15.812-0.051-22.092-7.189-22.058-23.015
	c0.077-36.01,0.024-72.021,0.024-108.031C38.669,748.858,38.77,748.858,38.87,748.858z M58.203,748.921c0.1,0,0.2,0,0.3,0
	c0,33.288,0.189,66.579-0.151,99.864c-0.072,7.103,2.564,8.981,9.078,8.764c10.591-0.353,21.203-0.116,31.806-0.076
	c48.33,0.183,96.659,0.406,144.989,0.566c12.728,0.042,14.27-1.634,14.261-14.539c-0.043-64.605-0.064-129.211-0.117-193.816
	c-0.008-9.227-0.9-10.1-10.179-10.101c-59.921-0.008-119.841-0.002-179.762,0.024c-9.178,0.004-10.209,1.035-10.216,10.187
	C58.187,682.835,58.203,715.878,58.203,748.921z"/>
<path d="M1180.453,719.723c0.212-3.914,0.382-7.055,0.569-10.513c6.602,0,12.956,0,20.498,0c0,2.301,0,4.64,0,6.979
	c0,22.675,0.004,45.349-0.007,68.024c-0.001,2.464-0.016,4.932-0.153,7.391c-1.58,28.436-17.169,44.155-45.634,44.307
	c-11.158,0.06-22.447-2.149-33.449-4.426c-5.533-1.145-10.556-4.755-16.519-7.587c3.602-5.989,6.591-10.957,9.874-16.416
	c12.891,7.955,26.387,11.631,41.077,9.832c16.772-2.053,24.676-12.765,22.023-29.769c-25.372,15.255-51.749,12.843-67.314-6.157
	c-13.649-16.66-13.11-42.907,1.201-58.509C1129.141,704.865,1156.936,703.323,1180.453,719.723z M1151.551,726.602
	c-16.67,0.089-28.396,11.214-28.077,26.638c0.32,15.484,12.354,26.394,28.794,26.103c16.64-0.295,27.679-11.224,27.458-27.184
	C1179.514,736.84,1168.129,726.513,1151.551,726.602z"/>
<path d="M572.392,736.83c2.971,2.063,5.24,3.469,7.323,5.111c16.851,13.28,15.374,38.672-2.943,51.149
	c-17.734,12.081-51.681,11.967-69.916,0.496c-17.463-10.985-23.199-41.635,1.657-55.51c-3.86-6.568-9.327-12.695-11.237-19.781
	c-3.993-14.813,2.982-27.911,17.09-34.722c15.884-7.669,32.478-7.767,48.937-2.336c12.157,4.011,21.116,11.903,23.3,25.265
	C588.679,719.192,583.829,729.151,572.392,736.83z M541.744,744.898c-5.918,1.551-11.801,2.441-17.131,4.658
	c-6.358,2.645-9.844,8.047-9.856,15.141c-0.012,7.024,3.178,12.431,9.548,15.367c11.582,5.34,23.394,5.199,34.864-0.247
	c6.274-2.98,9.344-8.388,9.164-15.549c-0.173-6.896-3.466-11.965-9.554-14.507C553.445,747.533,547.605,746.517,541.744,744.898z
	 M541.593,730.363c4.702-1.248,9.636-1.961,14.053-3.87c6.492-2.805,9.729-8.235,8.933-15.439
	c-0.972-8.807-8.415-13.964-20.903-14.838c-12.374-0.867-22.324,4.076-24.466,12.188c-0.249,0.944-0.318,1.943-0.393,2.923
	C517.95,722.594,526.543,729.531,541.593,730.363z"/>
<path d="M397.746,778.282c33.513,14.585,62.176-2.202,59.974-34.921c-12.999,11.007-27.769,13.523-43.718,10.079
	c-16.68-3.602-28.102-15.587-29.677-30.781c-1.884-18.173,6.257-32.928,22.265-40.352c33.952-15.746,70.252,4.753,73.509,42.579
	c1.117,12.978,0.297,26.883-3.233,39.345c-7.776,27.45-35.146,42.22-65.652,37.271c-7.132-1.157-14.046-3.657-22.078-5.812
	C392.408,789.076,394.964,783.907,397.746,778.282z M430.166,736.405c14.193,0.004,24.573-8.426,24.723-20.079
	c0.147-11.413-9.445-19.555-23.751-20.161c-14.053-0.595-24.249,6.983-24.943,18.538C405.4,727.925,414.763,736.401,430.166,736.405
	z"/>
<path d="M824.517,719.489c0-16.588,0-31.756,0-47.266c7.497,0,14.265,0,21.391,0c0,42.695,0,85.029,0,127.934
	c-6.464,0-12.969,0-20.183,0c-0.176-2.769-0.368-5.772-0.573-8.989c-26.066,15.957-51.924,13.688-67.418-5.574
	c-14.261-17.729-13.127-46.906,2.113-63.499C772.661,708.142,802.344,700.988,824.517,719.489z M797.335,726.607
	c-16.088-0.026-27.518,11.618-27.729,28.248c-0.212,16.766,11.682,29.09,27.902,28.911c16.127-0.179,27.247-11.913,27.205-28.707
	C824.67,738.283,813.461,726.634,797.335,726.607z"/>
<path d="M887.334,762.067c0.558,18.421,31.083,31.202,54.686,12.291c3.669,4.142,7.356,8.304,11.332,12.793
	c-11.907,13.091-26.793,15.787-42.766,14.862c-33.215-1.923-53.609-31.328-43.552-62.515c7.57-23.477,33.012-36.451,58.562-29.865
	c23.348,6.018,37.684,28.569,32.891,52.433C934.999,762.067,911.396,762.067,887.334,762.067z M937.88,747.031
	c-0.941-12.374-10.62-20.573-24.328-20.929c-14.528-0.378-24.929,7.83-26.442,20.929
	C904.032,747.031,920.945,747.031,937.88,747.031z"/>
<path d="M668.069,697.648c-15.539,0-29.529-0.133-43.507,0.206c-1.391,0.034-3.692,2.833-3.879,4.535
	c-0.531,4.839-0.186,9.774-0.186,15.307c-7.106,0-13.586,0-20.669,0c0-12.387,0-24.813,0-37.84c30.963,0,62.078,0,95.185,0
	c-1.475,7.354-1.737,14.825-4.47,21.244c-13.4,31.469-27.533,62.624-41.192,93.984c-1.831,4.203-4.008,6.112-8.742,5.745
	c-5.624-0.436-11.307-0.103-18.116-0.103C637.676,766.386,652.543,732.762,668.069,697.648z"/>
<path d="M1317.051,800.331c-7.228,0-13.785,0-21.114,0c0-9.194,0.002-18.006,0-26.818c-0.002-7.647,0.17-15.299-0.051-22.94
	c-0.436-15.067-7.195-23.157-19.68-23.93c-15.481-0.958-25.823,6.59-27.508,21.471c-1.159,10.24-0.671,20.672-0.819,31.019
	c-0.098,6.87-0.019,13.743-0.019,21.101c-7.266,0-14.002,0-21.128,0c0-30.308,0-60.313,0-90.839c6.546,0,13.043,0,19.981,0
	c0.246,3.042,0.479,5.912,0.789,9.743c11.8-9.786,24.966-12.214,39.169-10.394c16.574,2.124,29.257,13.82,30.131,30.523
	C1317.855,759.39,1317.051,779.611,1317.051,800.331z"/>
<path d="M1043.905,716.38c-3.092,6.279-5.68,11.533-7.496,15.221c-10.584-1.776-20.124-3.483-29.707-4.901
	c-2.118-0.313-4.449,0.152-6.575,0.687c-4.85,1.222-9.96,2.594-10.398,8.797c-0.473,6.698,4.993,7.955,9.724,9.085
	c8.379,2.001,16.933,3.263,25.327,5.208c14.226,3.295,21.142,10.301,21.755,21.513c0.689,12.59-5.625,22.093-19.146,26.538
	c-21.227,6.979-41.655,4.224-62.015-6.727c2.83-5.697,5.391-10.851,8.17-16.444c12.99,6.374,26.127,9.898,40.233,7.721
	c2.4-0.37,5.316-0.664,6.916-2.152c2.115-1.966,4.346-5.094,4.306-7.688c-0.032-2.115-2.979-5.396-5.239-6.044
	c-7.55-2.163-15.399-3.261-23.082-4.994c-4.788-1.08-9.726-2.018-14.176-3.977c-16.489-7.26-19.744-28.53-5.847-40.052
	c4.563-3.783,10.532-6.653,16.313-8.034C1010.254,706.01,1027.073,708.016,1043.905,716.38z"/>
<path d="M1339.304,775.277c13.032,6.55,25.974,9.842,39.878,7.858c1.933-0.276,4.378-0.291,5.611-1.457
	c2.463-2.33,5.672-5.287,5.851-8.154c0.134-2.153-3.604-5.805-6.284-6.632c-7.023-2.166-14.415-3.123-21.649-4.617
	c-3.374-0.697-6.782-1.322-10.071-2.321c-11.694-3.554-17.981-10.515-18.719-21.175c-0.78-11.264,4.317-19.595,14.099-24.822
	c13.292-7.102,27.589-6.841,41.862-4.305c6.428,1.142,12.612,3.659,19.916,5.856c-3.099,6.595-5.65,12.021-7.664,16.308
	c-10.095-1.836-19.36-3.563-28.645-5.168c-1.427-0.247-2.992-0.14-4.422,0.154c-5.742,1.179-12.714,1.517-13.474,9.076
	c-0.845,8.394,6.674,8.619,12.151,9.982c9.073,2.258,18.414,3.503,27.389,6.061c8.712,2.484,15.487,7.632,16.875,17.54
	c1.468,10.478-1.809,18.888-10.702,24.98c-16.9,11.576-53.188,9.944-69.822-3.558
	C1333.929,786.002,1336.433,781.006,1339.304,775.277z"/>
<path d="M319.593,679.556c15.854,0,31.321,0,47.386,0c0,40.12,0,80.14,0,120.666c-7.264,0-14.466,0-22.307,0
	c0-34.051,0-67.748,0-102.307c-8.601,0-16.602,0-25.079,0C319.593,691.498,319.593,685.937,319.593,679.556z"/>
<path d="M1082.954,800.36c-7.036,0-13.575,0-20.534,0c0-30.482,0-60.599,0-91.1c6.891,0,13.433,0,20.534,0
	C1082.954,739.463,1082.954,769.582,1082.954,800.36z"/>
<path d="M1086.542,679.861c-0.452,7.904-6.823,13.311-14.943,12.682c-7.815-0.605-12.938-6.511-12.447-14.35
	c0.47-7.502,6.599-12.639,14.587-12.228C1081.798,666.38,1086.991,672.016,1086.542,679.861z"/>
<path d="M196.398,759.36c5.658,0,10.463,0,15.97,0c0,11.636,0.759,22.96-0.211,34.133c-0.996,11.475-13.199,21.684-25.229,21.937
	c-16.994,0.357-34.006,0.409-51,0.069c-13.895-0.278-24.765-10.429-26.639-24.068c-0.3-2.182-0.171-4.427-0.175-6.643
	c-0.017-8.325-0.007-16.651-0.007-25.446c5.228,0,9.789,0,15.605,0c0,8.716-0.017,17.454,0.004,26.192
	c0.029,11.873,2.326,14.283,14.228,14.382c15.276,0.128,30.553,0.154,45.829,0.078c8.226-0.041,11.522-3.451,11.604-11.8
	C196.468,778.862,196.398,769.53,196.398,759.36z"/>
<path d="M141.63,706.279c-0.162,15.22-12.852,27.631-28.021,27.407c-15.247-0.226-27.424-12.794-27.26-28.134
	c0.163-15.26,12.829-27.662,27.987-27.404C129.595,678.408,141.793,690.98,141.63,706.279z"/>
<path d="M237.814,705.702c0.099,15.273-12.219,27.822-27.46,27.976c-15.197,0.154-27.743-12.264-27.838-27.553
	c-0.096-15.336,12.164-27.848,27.414-27.979C225.109,678.015,237.715,690.473,237.814,705.702z"/>
</svg>
